<svg width="38" height="38" viewBox="0 0 38 38" fill="none" xmlns="http://www.w3.org/2000/svg">
<circle cx="19" cy="19" r="19" fill="#356C07"/>
<path d="M26.083 24.963C26.363 25.229 26.503 25.53 26.503 25.866C26.503 26.188 26.377 26.475 26.125 26.727C25.887 26.965 25.6 27.084 25.264 27.084C24.914 27.084 24.592 26.937 24.298 26.643L17.305 20.091V25.761C17.305 26.167 17.179 26.496 16.927 26.748C16.689 27 16.36 27.126 15.94 27.126C15.534 27.126 15.205 27 14.953 26.748C14.715 26.496 14.596 26.167 14.596 25.761V13.434C14.596 13.028 14.715 12.706 14.953 12.468C15.205 12.216 15.534 12.09 15.94 12.09C16.36 12.09 16.689 12.216 16.927 12.468C17.179 12.706 17.305 13.028 17.305 13.434V18.831L24.067 12.489C24.319 12.237 24.606 12.111 24.928 12.111C25.25 12.111 25.53 12.237 25.768 12.489C26.02 12.727 26.146 13.007 26.146 13.329C26.146 13.651 26.006 13.945 25.726 14.211L20.077 19.377L26.083 24.963Z" fill="white"/>
</svg>
