<svg width="19" height="20" viewBox="0 0 19 20" fill="none" xmlns="http://www.w3.org/2000/svg">
    <path d="M11.6714 12.0726C11.2217 12.0726 10.8571 12.4411 10.8571 12.8957V15.0907C10.8571 15.5453 11.2217 15.9138 11.6714 15.9138C12.1211 15.9138 12.4857 15.5453 12.4857 15.0907V12.8957C12.4857 12.4411 12.1211 12.0726 11.6714 12.0726Z" fill="#68C114"/>
    <path d="M6.51429 12.8957C6.51429 12.4411 6.87885 12.0726 7.32857 12.0726C7.77829 12.0726 8.14286 12.4411 8.14286 12.8957V15.0907C8.14286 15.5453 7.77829 15.9138 7.32857 15.9138C6.87885 15.9138 6.51429 15.5453 6.51429 15.0907V12.8957Z" fill="#68C114"/>
    <path fill-rule="evenodd" clip-rule="evenodd" d="M12.052 1.23482C11.8271 0.841128 11.9605 0.337714 12.35 0.110415C12.7395 -0.116884 13.2375 0.0180053 13.4623 0.411699L15.6338 4.21354C15.6663 4.27049 15.6913 4.32975 15.7092 4.39013H16.0143C17.6633 4.39013 19 5.74138 19 7.40824C19 8.35113 18.5723 9.19304 17.9022 9.74649L17.1781 14.7782L16.6931 17.0754C16.4025 18.4518 15.2909 19.4973 13.9119 19.6912C10.9847 20.1029 8.01525 20.1029 5.08805 19.6912C3.70905 19.4973 2.59751 18.4518 2.3069 17.0754L1.82186 14.7782L1.09776 9.74649C0.427734 9.19304 0 8.35113 0 7.40824C0 5.74138 1.33675 4.39013 2.98571 4.39013H3.29083C3.30867 4.32975 3.3337 4.27049 3.36623 4.21354L5.53766 0.411699C5.76252 0.0180053 6.26053 -0.116884 6.65 0.110415C7.03946 0.337714 7.1729 0.841128 6.94805 1.23482L5.14589 4.39013H13.8541L12.052 1.23482ZM2.84081 10.4229C2.88882 10.4252 2.93713 10.4264 2.98571 10.4264H16.0143C16.0629 10.4264 16.1112 10.4252 16.1592 10.4229L15.5742 14.4876L15.1004 16.7318C14.9528 17.431 14.3881 17.9621 13.6875 18.0607C10.9092 18.4514 8.09078 18.4514 5.31249 18.0607C4.61192 17.9621 4.04723 17.431 3.8996 16.7318L3.42575 14.4876L2.84081 10.4229ZM17.3714 7.40824C17.3714 6.65058 16.7638 6.03637 16.0143 6.03637H2.98571C2.23618 6.03637 1.62857 6.65058 1.62857 7.40824C1.62857 8.1659 2.23618 8.78011 2.98571 8.78011H16.0143C16.7638 8.78011 17.3714 8.1659 17.3714 7.40824Z" fill="#68C114"/>
</svg>
