<svg width="32" height="30" viewBox="0 0 32 30" fill="none" xmlns="http://www.w3.org/2000/svg">
    <path d="M26.3529 22.9594C25.4172 22.9594 24.5683 22.9652 23.7194 22.9594C22.9572 22.9535 22.6102 22.6336 22.6102 21.9181C22.604 18.5036 22.604 15.0833 22.6102 11.6687C22.6102 10.9242 22.9448 10.6101 23.7566 10.6042C24.5807 10.5926 25.4048 10.6042 26.229 10.6042C26.4025 6.22993 21.439 1.85561 16.2897 1.76254C9.90102 1.6462 5.91663 6.53241 5.74312 10.6042C6.52389 10.6042 7.31086 10.5984 8.09162 10.6042C9.09547 10.6101 9.38051 10.8835 9.38051 11.8316C9.38051 15.1531 9.38051 18.4687 9.38051 21.7902C9.38051 22.686 9.07688 22.9652 8.10402 22.971C7.10637 22.971 6.10872 22.971 5.11107 22.971C4.05146 22.971 3.8036 22.7441 3.76022 21.7378C3.75402 21.6622 3.74163 21.5866 3.72924 21.4935C3.38843 21.4644 3.05381 21.4644 2.73778 21.3946C1.33116 21.0921 0.63095 20.144 0.290139 18.9224C-0.0754591 17.5962 -0.0878523 16.2525 0.209583 14.9146C0.643343 12.9834 1.57283 12.2388 3.74783 12.0352C3.69825 8.20768 5.16064 4.99674 8.35188 2.55364C10.7376 0.727133 13.5012 -0.110502 16.5747 0.0116528C23.1865 0.279231 28.5961 5.65406 28.2801 12.0119C28.311 12.0294 28.3482 12.0643 28.3792 12.0643C30.2258 12.1515 31.2606 12.9194 31.713 14.5946C32.0724 15.9209 32.091 17.2646 31.7873 18.6025C31.3474 20.5453 30.4117 21.3074 28.2305 21.4993C28.2305 22.1857 28.2305 22.8837 28.2305 23.576C28.2243 26.3797 26.2538 28.2353 23.267 28.2411C22.4987 28.2411 21.7241 28.2237 20.9557 28.2528C20.7574 28.2586 20.4786 28.3924 20.3856 28.5436C19.7784 29.5383 18.8799 30.0153 17.6653 29.9978C17.0829 29.992 16.5004 30.0095 15.9179 29.992C14.3688 29.9455 13.1666 28.7705 13.1852 27.3337C13.2038 25.9144 14.3873 24.7742 15.9117 24.7277C16.5561 24.7103 17.2006 24.7161 17.845 24.7277C18.9294 24.7452 19.7784 25.1931 20.2927 26.083C20.4848 26.4146 20.6955 26.5019 21.0672 26.4902C21.7922 26.4611 22.5234 26.4844 23.2484 26.4844C25.2004 26.4786 26.3405 25.4025 26.3405 23.5643C26.3529 23.384 26.3529 23.2095 26.3529 22.9594ZM7.45338 21.191C7.45338 18.2244 7.45338 15.3101 7.45338 12.4017C6.83372 12.4017 6.25744 12.4017 5.68116 12.4017C5.68116 15.3567 5.68116 18.2709 5.68116 21.191C6.28842 21.191 6.85231 21.191 7.45338 21.191ZM24.5249 12.3959C24.5249 15.345 24.5249 18.2593 24.5249 21.1736C25.1446 21.1736 25.7209 21.1736 26.3034 21.1736C26.3034 18.2302 26.3034 15.3159 26.3034 12.3959C25.6899 12.3959 25.1198 12.3959 24.5249 12.3959ZM3.72304 19.6554C3.72304 17.7067 3.72304 15.8046 3.72304 13.9083C2.93608 13.7686 2.50232 13.9548 2.24206 14.6528C1.72774 16.0431 1.73394 17.4508 2.23586 18.841C2.48992 19.539 2.87411 19.7135 3.72304 19.6554ZM28.2615 19.6495C28.9245 19.7775 29.4202 19.5797 29.6433 19.0446C30.2939 17.538 30.2877 15.9965 29.6619 14.4841C29.4326 13.9315 28.9245 13.7279 28.2615 13.8792C28.2615 15.8046 28.2615 17.7125 28.2615 19.6495ZM16.9837 26.4786C16.6553 26.4786 16.3207 26.4611 15.9923 26.4786C15.4532 26.5135 15.0876 26.8625 15.0752 27.3279C15.0628 27.799 15.4222 28.1888 15.9489 28.212C16.6119 28.2411 17.2749 28.2469 17.9318 28.2062C18.4523 28.1771 18.7559 27.8572 18.7807 27.3628C18.8117 26.8974 18.4399 26.5193 17.9132 26.4728C17.6034 26.4611 17.2935 26.4786 16.9837 26.4786Z" fill="#356C07"/>
</svg>
