<svg width="10" height="10" viewBox="0 0 10 10" fill="none" xmlns="http://www.w3.org/2000/svg">
    <g clip-path="url(#clip0_3441_10252)">
        <path fill-rule="evenodd" clip-rule="evenodd" d="M1.03733 5.27286C1.07873 5.3444 1.13361 5.43557 1.2016 5.54084C1.37623 5.81124 1.63484 6.17081 1.97058 6.52894C2.64899 7.25257 3.59747 7.92438 4.77189 7.92438C5.94632 7.92438 6.8948 7.25257 7.5732 6.52894C7.90895 6.17081 8.16756 5.81124 8.34219 5.54084C8.41018 5.43557 8.46506 5.3444 8.50646 5.27286C8.46506 5.20132 8.41018 5.11015 8.34219 5.00488C8.16756 4.73448 7.90895 4.37491 7.5732 4.01678C6.8948 3.29315 5.94632 2.62135 4.77189 2.62135C3.59747 2.62135 2.64899 3.29315 1.97058 4.01678C1.63484 4.37491 1.37623 4.73448 1.2016 5.00488C1.13361 5.11015 1.07873 5.20132 1.03733 5.27286ZM8.93856 5.27286C9.27736 5.10346 9.27729 5.10333 9.27723 5.10319L9.27661 5.10198L9.27531 5.09939L9.27101 5.09098C9.2674 5.08395 9.26229 5.07412 9.2557 5.06166C9.24252 5.03676 9.2234 5.00136 9.19842 4.95695C9.14849 4.86818 9.07498 4.74313 8.97859 4.59387C8.78626 4.29608 8.50037 3.89809 8.12589 3.49864C7.38383 2.70712 6.24898 1.86377 4.77189 1.86377C3.29481 1.86377 2.15996 2.70712 1.4179 3.49864C1.04342 3.89809 0.757526 4.29608 0.565204 4.59387C0.468808 4.74313 0.395301 4.86818 0.345369 4.95695C0.320389 5.00136 0.301266 5.03676 0.288089 5.06166C0.2815 5.07412 0.276393 5.08395 0.272781 5.09098L0.268482 5.09939L0.267175 5.10198L0.266732 5.10286C0.266663 5.103 0.26643 5.10346 0.605228 5.27286L0.26643 5.10346C0.213111 5.2101 0.213111 5.33562 0.26643 5.44226L0.605228 5.27286C0.26643 5.44226 0.266361 5.44212 0.26643 5.44226L0.267175 5.44374L0.268482 5.44633L0.272781 5.45475C0.276393 5.46177 0.2815 5.47161 0.288089 5.48406C0.301266 5.50896 0.320389 5.54436 0.345369 5.58877C0.395301 5.67754 0.468808 5.80259 0.565204 5.95185C0.757526 6.24964 1.04342 6.64763 1.4179 7.04708C2.15996 7.8386 3.29481 8.68195 4.77189 8.68195C6.24898 8.68195 7.38383 7.8386 8.12589 7.04708C8.50037 6.64763 8.78626 6.24964 8.97859 5.95185C9.07498 5.80259 9.14849 5.67754 9.19842 5.58877C9.2234 5.54436 9.24252 5.50896 9.2557 5.48406C9.26229 5.47161 9.2674 5.46177 9.27101 5.45475L9.27531 5.44633L9.27661 5.44374L9.27706 5.44286C9.27713 5.44272 9.27736 5.44226 8.93856 5.27286ZM8.93856 5.27286L9.27736 5.44226C9.33068 5.33562 9.33054 5.20983 9.27723 5.10319L8.93856 5.27286Z" fill="#828282"/>
        <path fill-rule="evenodd" clip-rule="evenodd" d="M4.77187 4.51539C4.35347 4.51539 4.01429 4.85457 4.01429 5.27296C4.01429 5.69136 4.35347 6.03054 4.77187 6.03054C5.19026 6.03054 5.52944 5.69136 5.52944 5.27296C5.52944 4.85457 5.19026 4.51539 4.77187 4.51539ZM3.25671 5.27296C3.25671 4.43617 3.93507 3.75781 4.77187 3.75781C5.60866 3.75781 6.28702 4.43617 6.28702 5.27296C6.28702 6.10976 5.60866 6.78812 4.77187 6.78812C3.93507 6.78812 3.25671 6.10976 3.25671 5.27296Z" fill="#828282"/>
    </g>
    <defs>
        <clipPath id="clip0_3441_10252">
            <rect width="9.09091" height="9.09091" fill="white" transform="translate(0.22644 0.727539)"/>
        </clipPath>
    </defs>
</svg>
