<svg width="22" height="26" viewBox="0 0 22 26" fill="none" xmlns="http://www.w3.org/2000/svg">
<path d="M6.80438 24.0958C-0.400329 20.0034 2.05803 13.1252 4.22371 10.1372C5.19764 12.0523 6.4969 14.5812 5.7166 12.9396C5.7166 12.9396 7.7713 8.74412 9.34255 7.7906C11.3731 5.95984 10.6721 4.16722 10.0677 3.49976C14.7089 4.64398 16.111 10.2697 16.2318 12.9396C18.5525 10.1935 18.6491 7.59989 18.4074 6.64637C22.4685 11.681 22.2751 16.563 21.6708 18.3747C20.2204 25.0112 11.1555 24.954 6.80438 24.0958Z" fill="#F79E1B"/>
<path d="M16.7776 3.74821C16.6415 3.56798 16.3949 3.50485 16.1857 3.59677C15.9765 3.68864 15.8614 3.91049 15.9095 4.1294C16.2922 5.87417 16.0834 7.61671 15.2887 9.3086C15.2617 9.36618 15.2344 9.42271 15.2069 9.4782C15.2447 8.92277 15.2435 8.29864 15.1666 7.63842C14.9193 5.5136 13.8134 2.61659 9.9496 0.882131C9.76715 0.800232 9.55193 0.836003 9.40755 0.9722C9.26323 1.1084 9.21935 1.31709 9.29712 1.4977C10.2106 3.61938 9.90573 5.0872 8.27759 6.40561C7.22816 7.25538 6.55469 8.28639 6.12264 9.25065C5.78855 7.83081 5.00528 5.94324 3.18972 4.28027C3.04817 4.15063 2.84123 4.11543 2.66301 4.19063C2.48484 4.26588 2.36949 4.43718 2.36949 4.62659C2.36949 7.98345 1.65901 9.50024 1.03219 10.8385C0.50139 11.9717 0 13.0421 0 14.9174C0 15.2666 0.0182599 15.6188 0.0541953 15.9643C0.0813659 16.2253 0.320155 16.4156 0.58782 16.3889C0.855387 16.3624 1.05021 16.1293 1.02304 15.8683C0.990364 15.5546 0.973808 15.2347 0.973808 14.9174C0.973808 13.2489 1.41131 12.3149 1.91791 11.2334C2.50865 9.97211 3.16917 8.56196 3.31418 5.78875C4.31083 6.95068 4.96073 8.30415 5.2506 9.82541C5.41109 10.6679 5.41941 11.3782 5.39911 11.8199C5.35845 12.1361 5.35154 12.3363 5.35061 12.3696C5.34389 12.6195 5.53681 12.8317 5.79191 12.8551C6.04731 12.878 6.27699 12.7048 6.31804 12.4581C6.32121 12.439 6.35247 12.2449 6.37 11.9178C6.50195 10.9398 7.00573 8.67032 8.89954 7.13676C9.92521 6.30618 10.517 5.39389 10.7087 4.34763C10.8253 3.71116 10.7897 3.03169 10.5991 2.29156C12.7037 3.54171 13.9118 5.36087 14.1951 7.7129C14.4443 9.78251 13.8539 11.5164 13.8481 11.5331C13.774 11.7448 13.8613 11.9782 14.0578 12.0936C14.2542 12.2089 14.5066 12.175 14.6637 12.0121C14.6971 11.9774 15.4904 11.1462 16.1579 9.73872C16.7588 8.47166 17.0639 7.13866 17.0648 5.8078C19.2032 8.98234 20.0261 11.5871 20.0261 14.9175C20.0261 18.738 17.6508 22.0269 14.2655 23.4538C14.993 22.6151 15.4325 21.5314 15.4325 20.3493C15.4325 19.7183 15.2047 18.9932 14.7555 18.1939C14.7536 18.1905 14.7516 18.1871 14.7496 18.1838C14.6488 18.0143 14.5464 17.8446 14.4439 17.6746C13.3333 15.8327 12.2843 14.093 12.7318 12.2126C12.7726 12.0409 12.7126 11.8612 12.5759 11.7458C12.4392 11.6305 12.2482 11.5985 12.08 11.6628C10.4677 12.2782 9.32628 13.7426 8.87505 15.033C7.94852 13.9661 6.80434 13.8308 6.74133 13.8241C6.56983 13.806 6.40131 13.8787 6.29837 14.014C6.19543 14.1492 6.17396 14.3283 6.2414 14.4834C6.24934 14.5017 7.02267 16.3292 6.04069 18.2916C6.03976 18.2935 6.03879 18.2954 6.03791 18.2973C5.72574 18.9426 5.56744 19.6331 5.56744 20.3493C5.56744 21.5383 6.01196 22.6277 6.74702 23.4683C4.94753 22.7199 3.4065 21.433 2.34704 19.7275C2.20768 19.5031 1.90822 19.4315 1.67825 19.5674C1.44827 19.7034 1.37484 19.9956 1.5142 20.2199C2.43347 21.6997 3.73148 22.938 5.26798 23.8011C6.8524 24.6909 8.66158 25.1613 10.5 25.1613C13.3046 25.1613 15.9414 24.0957 17.9246 22.1609C19.9078 20.2261 21 17.6536 21 14.9174C21 10.8518 19.8556 7.82464 16.7776 3.74821ZM6.54139 20.3491C6.54139 19.7751 6.6679 19.2221 6.91735 18.7053C7.63484 17.2695 7.57656 15.9157 7.41095 15.0535C7.85868 15.3096 8.39747 15.7897 8.73569 16.6831C8.82616 16.9221 9.09387 17.049 9.3423 16.9705C9.59083 16.8921 9.73165 16.6364 9.66153 16.391C9.47733 15.7462 10.1712 13.9334 11.6545 12.9504C11.5908 14.8164 12.6121 16.5103 13.6045 18.1561C13.7051 18.3229 13.8054 18.4894 13.9044 18.6556C14.267 19.302 14.4586 19.8875 14.4586 20.3491C14.4586 22.4787 12.6828 24.2112 10.5 24.2112C8.31722 24.2112 6.54139 22.4787 6.54139 20.3491Z" fill="#E10000"/>
<path d="M1.00841 18.5094C0.879864 18.5094 0.754723 18.4586 0.664154 18.3702C0.573099 18.2819 0.521484 18.1593 0.521484 18.0344C0.521484 17.9094 0.57305 17.7869 0.664154 17.6985C0.754723 17.6102 0.879864 17.5593 1.00841 17.5593C1.13648 17.5593 1.2621 17.6102 1.35267 17.6985C1.44324 17.7869 1.49534 17.9094 1.49534 18.0344C1.49534 18.1593 1.44324 18.2819 1.35267 18.3702C1.2621 18.4586 1.13648 18.5094 1.00841 18.5094Z" fill="#E10000"/>
</svg>
