<svg width="12" height="14" viewBox="0 0 12 14" fill="none" xmlns="http://www.w3.org/2000/svg">
    <path d="M9.15142 1.58705C9.07718 1.48874 8.94266 1.4543 8.82859 1.50444C8.71446 1.55456 8.65167 1.67557 8.67789 1.79497C8.88667 2.74666 8.77276 3.69714 8.3393 4.61999C8.32456 4.65139 8.30966 4.68223 8.29468 4.71249C8.31526 4.40953 8.31465 4.0691 8.27272 3.70898C8.13779 2.54999 7.5346 0.969802 5.42706 0.0237314C5.32754 -0.0209408 5.21014 -0.00142911 5.13139 0.0728604C5.05267 0.14715 5.02874 0.260981 5.07115 0.359498C5.56944 1.51678 5.40312 2.3174 4.51505 3.03654C3.94263 3.50005 3.57528 4.06242 3.33962 4.58838C3.15739 3.81392 2.73015 2.78434 1.73985 1.87726C1.66264 1.80655 1.54976 1.78735 1.45255 1.82837C1.35537 1.86941 1.29245 1.96285 1.29245 2.06616C1.29245 3.89718 0.904916 4.72452 0.563013 5.45446C0.273486 6.07259 0 6.65646 0 7.67936C0 7.86981 0.00995997 8.0619 0.029561 8.25035C0.0443814 8.39271 0.17463 8.49652 0.320629 8.48195C0.466575 8.4675 0.57284 8.34035 0.55802 8.19799C0.540198 8.02689 0.531168 7.8524 0.531168 7.67936C0.531168 6.76925 0.769807 6.2598 1.04613 5.66986C1.36836 4.9819 1.72864 4.21273 1.80773 2.70007C2.35136 3.33385 2.70585 4.07211 2.86396 4.90189C2.9515 5.36143 2.95604 5.74884 2.94497 5.98977C2.92279 6.16224 2.91902 6.27149 2.91852 6.28962C2.91485 6.42592 3.02008 6.5417 3.15923 6.55442C3.29853 6.56696 3.42381 6.47248 3.4462 6.3379C3.44793 6.32748 3.46498 6.22158 3.47454 6.0432C3.54652 5.50973 3.82131 4.27184 4.85429 3.43535C5.41375 2.9823 5.73656 2.48469 5.84109 1.91401C5.90471 1.56684 5.88529 1.19622 5.78134 0.792512C6.9293 1.47441 7.58825 2.46668 7.74277 3.74961C7.87873 4.87849 7.55667 5.82422 7.55353 5.83334C7.51311 5.9488 7.56073 6.07614 7.6679 6.13908C7.77504 6.20199 7.91267 6.18346 7.99835 6.09461C8.01657 6.0757 8.44929 5.62234 8.81342 4.8546C9.14117 4.16347 9.30756 3.43638 9.30807 2.71046C10.4745 4.44203 10.9234 5.86283 10.9234 7.67941C10.9234 9.76327 9.62769 11.5572 7.78118 12.3355C8.17801 11.8781 8.41771 11.287 8.41771 10.6422C8.41771 10.298 8.29346 9.90247 8.04845 9.4665C8.04741 9.46464 8.04632 9.4628 8.04523 9.46099C7.99023 9.36856 7.93443 9.27597 7.87849 9.18324C7.27272 8.1786 6.70054 7.22968 6.9446 6.20399C6.96688 6.11031 6.93416 6.01229 6.85958 5.94937C6.78503 5.88649 6.68086 5.86902 6.58907 5.90408C5.70968 6.2398 5.08706 7.03856 4.84093 7.74238C4.33556 7.16045 3.71146 7.08662 3.67709 7.083C3.58354 7.0731 3.49162 7.11277 3.43547 7.18657C3.37933 7.26034 3.36761 7.35802 3.4044 7.44263C3.40873 7.45258 3.83055 8.44941 3.29492 9.51978C3.29442 9.52082 3.29388 9.52185 3.29341 9.52289C3.12313 9.87488 3.03679 10.2515 3.03679 10.6422C3.03679 11.2907 3.27925 11.885 3.68019 12.3435C2.69865 11.9353 1.85809 11.2333 1.28021 10.303C1.20419 10.1806 1.04085 10.1416 0.915408 10.2157C0.789966 10.2899 0.749914 10.4492 0.825928 10.5716C1.32735 11.3788 2.03535 12.0542 2.87344 12.525C3.73767 13.0103 4.7245 13.2669 5.72726 13.2669C7.25707 13.2669 8.69531 12.6857 9.77706 11.6303C10.8588 10.575 11.4545 9.17181 11.4545 7.67931C11.4545 5.46174 10.8303 3.81055 9.15142 1.58705ZM3.56803 10.6421C3.56803 10.329 3.63704 10.0273 3.7731 9.74547C4.16446 8.96228 4.13267 8.22387 4.04234 7.75357C4.28655 7.89324 4.58044 8.15513 4.76492 8.64245C4.81427 8.77282 4.96029 8.842 5.0958 8.79922C5.23136 8.75647 5.30817 8.61698 5.26993 8.48309C5.16945 8.13139 5.54793 7.14262 6.35702 6.60642C6.32225 7.62424 6.87934 8.54819 7.42065 9.4459C7.4755 9.53688 7.53024 9.62768 7.58424 9.71834C7.782 10.0709 7.88651 10.3903 7.88651 10.6421C7.88651 11.8037 6.91788 12.7487 5.72729 12.7487C4.53667 12.7487 3.56803 11.8037 3.56803 10.6421Z" fill="#E10000"/>
    <path d="M0.5488 9.63836C0.478683 9.63836 0.410424 9.61063 0.361023 9.56243C0.311356 9.51424 0.283203 9.44738 0.283203 9.37924C0.283203 9.31109 0.31133 9.24424 0.361023 9.19604C0.410424 9.14784 0.478683 9.12012 0.5488 9.12012C0.618653 9.12012 0.687177 9.14784 0.736578 9.19604C0.785979 9.24424 0.814398 9.31109 0.814398 9.37924C0.814398 9.44738 0.785979 9.51424 0.736578 9.56243C0.687177 9.61063 0.618653 9.63836 0.5488 9.63836Z" fill="#E10000"/>
</svg>
