<svg width="14" height="14" viewBox="0 0 14 14" fill="none" xmlns="http://www.w3.org/2000/svg">
    <path d="M2.16667 0.328125C1.38426 0.328125 0.75 1.00203 0.75 1.83333C0.75 2.66464 1.38426 3.33854 2.16667 3.33854C2.94907 3.33854 3.58333 2.66464 3.58333 1.83333C3.58333 1.00203 2.94907 0.328125 2.16667 0.328125Z" fill="#356C07"/>
    <path d="M0.833333 4.57812C0.78731 4.57812 0.75 4.61777 0.75 4.66667V13.875C0.75 13.9239 0.78731 13.9635 0.833333 13.9635H3.5C3.54602 13.9635 3.58333 13.9239 3.58333 13.875V4.66667C3.58333 4.61777 3.54602 4.57812 3.5 4.57812H0.833333Z" fill="#356C07"/>
    <path d="M5.16667 4.57812C5.12064 4.57812 5.08333 4.61777 5.08333 4.66667V13.875C5.08333 13.9239 5.12064 13.9635 5.16667 13.9635H7.83333C7.87936 13.9635 7.91667 13.9239 7.91667 13.875V8.91667C7.91667 8.56443 8.04836 8.22661 8.28278 7.97754C8.5172 7.72847 8.83515 7.58854 9.16667 7.58854C9.49819 7.58854 9.81613 7.72847 10.0506 7.97754C10.285 8.22661 10.4167 8.56443 10.4167 8.91667V13.875C10.4167 13.9239 10.454 13.9635 10.5 13.9635H13.1667C13.2127 13.9635 13.25 13.9239 13.25 13.875V7.76934C13.25 6.0504 11.8429 4.70562 10.2332 4.8611C9.7368 4.90905 9.24597 5.04018 8.78765 5.24888L7.91667 5.64548V4.66667C7.91667 4.61777 7.87936 4.57812 7.83333 4.57812H5.16667Z" fill="#356C07"/>
</svg>
