<svg width="15" height="13" viewBox="0 0 15 13" fill="none" xmlns="http://www.w3.org/2000/svg">
<path d="M14.4486 2.41088C14.4896 2.35367 14.429 2.2798 14.3633 2.30524C13.8967 2.4861 13.4091 2.60813 12.9117 2.66826C13.4655 2.33738 13.8929 1.8337 14.1299 1.23738C14.154 1.17663 14.0877 1.12238 14.0305 1.15399C13.5157 1.43827 12.9606 1.64297 12.3839 1.76087C12.3597 1.7658 12.3348 1.75758 12.3179 1.7397C11.8851 1.28306 11.3155 0.979013 10.6944 0.873947C10.0604 0.766673 9.40862 0.872889 8.84142 1.17594C8.27422 1.47898 7.82365 1.96172 7.56037 2.54844C7.31004 3.10629 7.24249 3.72814 7.36596 4.32536C7.37554 4.3717 7.33927 4.41545 7.29204 4.41251C6.17 4.34282 5.07371 4.04438 4.0707 3.53516C3.07025 3.02724 2.18431 2.32063 1.46686 1.45892C1.43502 1.42068 1.37467 1.42563 1.35147 1.46965C1.12822 1.89328 1.01134 2.36545 1.01166 2.84534C1.01075 3.32303 1.12798 3.79353 1.3529 4.21495C1.57782 4.63637 1.90346 4.99564 2.30082 5.26076C1.87942 5.24929 1.46623 5.14511 1.09046 4.95623C1.04203 4.93189 0.983942 4.96655 0.98646 5.02069C1.01576 5.65056 1.247 6.28291 1.64725 6.76807C2.07319 7.28435 2.66438 7.63767 3.32082 7.76826C3.06813 7.84516 2.80578 7.88571 2.54166 7.88868C2.39791 7.887 2.25444 7.87639 2.11208 7.85693C2.05929 7.84971 2.01619 7.89985 2.03467 7.94982C2.23047 8.47929 2.57636 8.94129 3.03117 9.27854C3.5174 9.63909 4.10394 9.83911 4.70916 9.85076C3.68718 10.6549 2.42541 11.0938 1.12499 11.0974C0.991367 11.0979 0.857804 11.0935 0.724555 11.0845C0.649466 11.0793 0.614932 11.1794 0.679656 11.2178C1.9467 11.9697 3.39491 12.3671 4.87207 12.3653C5.96269 12.3767 7.04463 12.1706 8.0547 11.7591C9.06476 11.3476 9.98271 10.7389 10.7549 9.96869C11.5271 9.19846 12.1381 8.28208 12.5522 7.27307C12.9663 6.26406 13.1752 5.18265 13.1667 4.09201V3.75213C13.1667 3.72977 13.1772 3.70874 13.1951 3.69526C13.6755 3.33249 14.0981 2.89939 14.4486 2.41088Z" fill="#356C07"/>
</svg>
