<svg width="9" height="13" viewBox="0 0 9 13" fill="none" xmlns="http://www.w3.org/2000/svg">
    <path d="M6.05834 0.036377C5.18948 0.036377 4.3562 0.38153 3.74183 0.995907C3.12745 1.61028 2.7823 2.44356 2.7823 3.31242V5.13638H1.02917C0.941151 5.13638 0.869797 5.20773 0.869797 5.29575V7.70408C0.869797 7.79211 0.941151 7.86346 1.02917 7.86346H2.7823V12.8041C2.7823 12.8921 2.85365 12.9635 2.94167 12.9635H5.35C5.43802 12.9635 5.50938 12.8921 5.50938 12.8041V7.86346H7.27803C7.35117 7.86346 7.41491 7.81369 7.43265 7.74274L8.03473 5.33441C8.05988 5.23382 7.9838 5.13638 7.88012 5.13638H5.50938V3.31242C5.50938 3.16683 5.56722 3.0272 5.67017 2.92425C5.77312 2.8213 5.91275 2.76346 6.05834 2.76346H7.9C7.98803 2.76346 8.05938 2.69211 8.05938 2.60409V0.195752C8.05938 0.107732 7.98803 0.036377 7.9 0.036377H6.05834Z" fill="#356C07"/>
</svg>
