<svg width="10" height="10" viewBox="0 0 10 10" fill="none" xmlns="http://www.w3.org/2000/svg">
<path d="M0.126953 9.8335H1.09625C1.36281 9.8335 1.5809 9.58975 1.5809 9.29183V4.41683C1.5809 4.11891 1.36281 3.87516 1.09625 3.87516H0.126953V9.8335ZM9.73755 5.97683C9.79086 5.84141 9.81994 5.69516 9.81994 5.5435V4.9585C9.81994 4.36266 9.38375 3.87516 8.85064 3.87516H6.18507L6.63094 1.35641C6.65518 1.23725 6.64064 1.10725 6.59217 0.998913C6.4807 0.755163 6.34016 0.533079 6.16568 0.338079L5.94274 0.0834961L2.83614 3.55558C2.65198 3.76141 2.5502 4.03766 2.5502 4.32475V8.57141C2.5502 9.26475 3.05908 9.8335 3.68428 9.8335H7.61478C7.95404 9.8335 8.2739 9.63308 8.44838 9.30808L9.73755 5.97683Z" fill="white"/>
</svg>
