<svg width="12" height="16" viewBox="0 0 12 16" fill="none" xmlns="http://www.w3.org/2000/svg">
    <path d="M5.99935 15.5C4.94679 14.6022 3.97117 13.6179 3.08268 12.5575C1.74935 10.965 0.166016 8.59334 0.166016 6.33334C0.164835 3.97297 1.58622 1.8445 3.76691 0.941176C5.94759 0.0378484 8.45774 0.537712 10.126 2.20751C11.2231 3.29968 11.8376 4.78534 11.8327 6.33334C11.8327 8.59334 10.2494 10.965 8.91602 12.5575C8.02753 13.6179 7.05191 14.6022 5.99935 15.5ZM5.99935 2.16668C3.69931 2.16943 1.83544 4.0333 1.83268 6.33334C1.83268 7.30501 2.27185 8.98751 4.36185 11.4883C4.87697 12.1034 5.42353 12.6914 5.99935 13.25C6.57522 12.6921 7.12205 12.1049 7.63768 11.4908C9.72685 8.98668 10.166 7.30418 10.166 6.33334C10.1633 4.0333 8.29939 2.16943 5.99935 2.16668ZM5.99935 8.83335C4.61864 8.83335 3.49935 7.71406 3.49935 6.33334C3.49935 4.95263 4.61864 3.83334 5.99935 3.83334C7.38006 3.83334 8.49935 4.95263 8.49935 6.33334C8.49935 6.99639 8.23596 7.63227 7.76712 8.10111C7.29828 8.56995 6.66239 8.83335 5.99935 8.83335Z" fill="white"/>
</svg>
