<svg width="40" height="41" viewBox="0 0 40 41" fill="none" xmlns="http://www.w3.org/2000/svg">
    <path d="M25.6317 24.2565L30.9459 16.3967C31.4719 15.6225 30.4743 14.781 29.7126 15.3364L23.9812 19.3757C23.7928 19.5068 23.5637 19.5776 23.3283 19.5776C23.0928 19.5776 22.8637 19.5068 22.6753 19.3757L18.4312 16.4135C17.1616 15.5384 15.3479 15.8581 14.4955 17.0867L9.18127 24.9465C8.6553 25.7207 9.65284 26.5622 10.4146 26.0068L16.146 21.9675C16.3343 21.8364 16.5634 21.7656 16.7989 21.7656C17.0343 21.7656 17.2635 21.8364 17.4518 21.9675L21.6959 24.8792C22.9655 25.8048 24.7792 25.4851 25.6317 24.2565Z" fill="#1877F2"/>
    <path fill-rule="evenodd" clip-rule="evenodd" d="M20.0636 0.618408C9.26539 0.618408 0.511719 9.37207 0.511719 20.1703C0.511719 25.7152 2.82173 30.7225 6.52768 34.279V39.2208C6.52768 39.7043 6.76008 40.1582 7.15227 40.4409C7.54446 40.7236 8.04863 40.8005 8.50727 40.6476L14.0814 38.7896C15.9686 39.3955 17.9793 39.7221 20.0636 39.7221C30.8618 39.7221 39.6154 30.9685 39.6154 20.1703C39.6154 9.37207 30.8618 0.618408 20.0636 0.618408ZM3.5197 20.1703C3.5197 11.0333 10.9266 3.62639 20.0636 3.62639C29.2005 3.62639 36.6075 11.0333 36.6075 20.1703C36.6075 29.3072 29.2005 36.7142 20.0636 36.7142C18.1394 36.7142 16.295 36.3863 14.5813 35.7846C14.2665 35.6741 13.9239 35.6714 13.6075 35.7769L9.53566 37.1341V33.6226C9.53566 33.1948 9.35347 32.7872 9.0347 32.5019C5.6477 29.4705 3.5197 25.0699 3.5197 20.1703Z" fill="#1877F2"/>
</svg>
