<svg width="40" height="41" viewBox="0 0 40 41" fill="none" xmlns="http://www.w3.org/2000/svg">
<path d="M25.5533 24.0753L30.8534 16.2364C31.378 15.4643 30.3831 14.625 29.6234 15.1789L23.9072 19.2075C23.7194 19.3383 23.4909 19.4089 23.256 19.4089C23.0212 19.4089 22.7927 19.3383 22.6048 19.2075L18.372 16.2532C17.1057 15.3804 15.2968 15.6993 14.4467 16.9247L9.14656 24.7636C8.62197 25.5357 9.61687 26.375 10.3766 25.8211L16.0928 21.7925C16.2806 21.6617 16.5091 21.5911 16.744 21.5911C16.9788 21.5911 17.2073 21.6617 17.3952 21.7925L21.628 24.6964C22.8942 25.6196 24.7032 25.3007 25.5533 24.0753Z" fill="#356C07"/>
<path fill-rule="evenodd" clip-rule="evenodd" d="M20 0.5C9.23045 0.5 0.5 9.23045 0.5 20C0.5 25.5303 2.80388 30.5242 6.5 34.0713V39C6.5 39.4822 6.73178 39.9349 7.12293 40.2169C7.51409 40.4988 8.01692 40.5755 8.47434 40.423L14.0337 38.5699C15.9158 39.1742 17.9212 39.5 20 39.5C30.7696 39.5 39.5 30.7696 39.5 20C39.5 9.23045 30.7696 0.5 20 0.5ZM3.5 20C3.5 10.8873 10.8873 3.5 20 3.5C29.1127 3.5 36.5 10.8873 36.5 20C36.5 29.1127 29.1127 36.5 20 36.5C18.0809 36.5 16.2415 36.173 14.5322 35.5729C14.2183 35.4627 13.8766 35.46 13.561 35.5652L9.5 36.9189V33.4166C9.5 32.99 9.3183 32.5835 9.00037 32.2989C5.62235 29.2755 3.5 24.8866 3.5 20Z" fill="#356C07"/>
</svg>
