<svg width="18" height="18" viewBox="0 0 18 18" fill="none" xmlns="http://www.w3.org/2000/svg">
    <path d="M17.3226 13.2724L14.8848 10.8346C14.0141 9.96396 12.534 10.3123 12.1858 11.4441C11.9246 12.2277 11.0539 12.663 10.2703 12.4888C8.52904 12.0535 6.17829 9.78983 5.74297 7.96147C5.48178 7.17786 6.00416 6.30721 6.78775 6.04605C7.91959 5.69779 8.26784 4.21769 7.3972 3.34705L4.95939 0.909238C4.26287 0.299785 3.2181 0.299785 2.60864 0.909238L0.954416 2.56347C-0.699812 4.30476 1.12855 8.91918 5.22058 13.0112C9.31262 17.1033 13.927 19.0187 15.6683 17.2774L17.3226 15.6232C17.9321 14.9266 17.9321 13.8819 17.3226 13.2724Z" fill="white"/>
</svg>
