<svg width="29" height="36" viewBox="0 0 29 36" fill="none" xmlns="http://www.w3.org/2000/svg">
    <path d="M18.2756 30.0969C15.6624 32.2058 13.5135 31.8734 11.3416 30.0854C11.015 30.498 10.6941 30.9107 10.3674 31.329C9.49064 32.4579 8.62532 33.5983 7.7199 34.7043C7.54798 34.9163 7.20415 35.1169 6.96346 35.0882C6.77436 35.071 6.55659 34.71 6.47637 34.4636C6.1268 33.3633 5.82308 32.2459 5.47925 31.0711C4.33887 31.2144 3.23861 31.3806 2.12688 31.478C1.65124 31.5181 1.04954 31.8505 0.699971 31.2889C0.327486 30.6929 0.946385 30.3605 1.23291 29.9823C2.21284 28.6757 3.22714 27.3978 4.25864 26.0683C4.09246 25.9766 3.97212 25.9021 3.84031 25.8391C1.55955 24.8363 0.619744 23.1286 1.03807 20.6644C1.21572 19.61 1.43348 18.5556 1.63978 17.5069C1.96642 15.8278 1.49079 14.2233 1.19853 12.6015C1.07819 11.9253 0.99223 11.2319 0.969307 10.5443C0.923463 8.96837 1.62259 7.74776 2.99792 7.02571C3.98358 6.50996 5.04373 6.12028 6.10388 5.78791C7.63394 5.31227 8.96343 4.56157 10.1095 3.44411C10.7514 2.82521 11.4333 2.23497 12.1611 1.71922C13.9547 0.452766 15.651 0.458496 17.4446 1.73068C18.1896 2.25789 18.883 2.87106 19.542 3.50142C20.6652 4.57876 21.9546 5.32374 23.4445 5.76499C24.2583 6.00567 25.0663 6.27501 25.8399 6.61311C28.1035 7.61596 28.9631 9.24343 28.5619 11.6904C28.4989 12.0629 28.4645 12.4468 28.3499 12.8078C27.5476 15.3637 27.9946 17.8736 28.4874 20.418C29.0375 23.2432 28.178 24.7102 25.5419 25.9136C25.4846 25.9365 25.4445 25.9938 25.3413 26.0741C26.3614 27.3864 27.3814 28.6757 28.3728 29.9938C28.6479 30.3605 29.2209 30.6757 28.9115 31.2488C28.5848 31.8562 27.9831 31.5238 27.5075 31.4837C26.3958 31.3863 25.2898 31.2144 24.115 31.0654C23.7998 32.1656 23.5133 33.2373 23.1695 34.2917C23.0663 34.6011 22.8428 35.0309 22.6021 35.0825C22.3672 35.1341 21.9775 34.8246 21.7769 34.5782C20.5964 33.0997 19.4389 31.5926 18.2756 30.0969ZM27.4731 21.6157C27.4215 21.2203 27.3814 20.8191 27.3127 20.4237C27.0032 18.6243 26.4301 16.8536 26.7511 14.9912C26.9402 13.9138 27.1694 12.8422 27.3585 11.7649C27.7596 9.54142 27.1293 8.39531 25.0319 7.55865C24.413 7.31224 23.7712 7.10594 23.1293 6.91683C21.4159 6.424 19.9489 5.5415 18.6595 4.31516C17.9719 3.65041 17.2269 3.03151 16.4361 2.49857C15.3759 1.78225 14.2241 1.78225 13.1639 2.49857C12.3903 3.02005 11.6568 3.62176 10.9863 4.26931C9.65682 5.55869 8.11531 6.42973 6.34456 6.9684C5.41048 7.2492 4.48787 7.61023 3.61109 8.04575C2.60824 8.54431 2.11542 9.43254 2.16126 10.5672C2.17845 11.0371 2.21284 11.507 2.29306 11.9654C2.59105 13.7419 3.16984 15.4897 2.86039 17.3292C2.67128 18.4295 2.44206 19.524 2.24722 20.6186C1.84608 22.8478 2.47071 23.9824 4.57382 24.8191C5.19272 25.0655 5.82881 25.2832 6.47637 25.4666C8.16688 25.948 9.62244 26.8018 10.8946 28.0225C11.5708 28.67 12.2929 29.2774 13.0608 29.8161C14.2012 30.6127 15.4275 30.6127 16.5679 29.8161C17.3358 29.2832 18.0578 28.67 18.734 28.0225C20.0005 26.8018 21.4675 25.9652 23.1523 25.4609C24.0462 25.1916 24.9345 24.8649 25.7769 24.4695C26.9516 23.9251 27.5476 22.9624 27.4731 21.6157ZM10.4304 29.3004C9.0895 27.7646 7.42764 26.8878 5.47352 26.4408C4.52798 27.6557 3.58244 28.8763 2.53948 30.2173C3.62828 30.0854 4.53371 29.9823 5.43914 29.8734C6.25861 29.776 6.37322 29.8505 6.60817 30.67C6.84312 31.4894 7.07808 32.3089 7.35314 33.2544C8.43622 31.8677 9.4276 30.5897 10.4304 29.3004ZM27.0605 30.223C26.0577 28.9336 25.1637 27.776 24.2525 26.6299C24.178 26.5382 23.9775 26.4752 23.8629 26.5039C22.0348 26.9795 20.4245 27.8219 19.1638 29.3176C20.1724 30.6127 21.1695 31.8906 22.2411 33.2659C22.5276 32.2631 22.7912 31.392 23.0262 30.521C23.1752 29.9708 23.4732 29.7645 24.0577 29.862C25.0032 30.0052 25.9488 30.0912 27.0605 30.223Z" fill="#356C07"/>
    <path d="M25.4493 16.1774C25.4779 22.0283 20.7445 26.8019 14.865 26.8477C8.96821 26.8936 4.20613 22.1831 4.14309 16.2519C4.08578 10.3896 8.8536 5.57018 14.7618 5.52434C20.607 5.47276 25.4264 10.275 25.4493 16.1774ZM24.2745 16.1087C24.137 10.785 19.8448 6.59595 14.6472 6.71629C9.43239 6.83663 5.20324 11.1689 5.31785 16.2806C5.43819 21.6043 9.71892 25.7704 14.9452 25.6558C20.1829 25.5297 24.4063 21.2089 24.2745 16.1087Z" fill="#356C07"/>
    <path d="M18.4413 17.507C18.8023 18.613 19.1404 19.6789 19.49 20.7333C19.6963 21.3465 19.6562 21.8909 19.0946 22.2863C18.5559 22.6702 18.0459 22.5155 17.553 22.1545C16.7966 21.5986 16.0115 21.0771 15.2837 20.4926C14.9113 20.1946 14.6591 20.2233 14.2981 20.5041C13.5589 21.0829 12.7795 21.6101 12.0231 22.1659C11.5245 22.5327 11.0088 22.6645 10.4815 22.2806C9.96007 21.9023 9.88557 21.3866 10.0919 20.7849C10.4128 19.8565 10.6878 18.9167 11.0145 17.9884C11.1348 17.6388 11.0833 17.4268 10.7681 17.209C10.0288 16.7105 9.31251 16.1718 8.59046 15.6446C7.8283 15.0887 7.60481 14.636 7.81111 14.04C8.08044 13.2721 8.71654 13.2206 9.39847 13.232C10.2924 13.2492 11.1864 13.2607 12.0804 13.2148C12.2924 13.2034 12.5961 12.9799 12.6706 12.7793C13.0145 11.8624 13.301 10.9226 13.599 9.98279C13.7881 9.40401 14.1204 8.97995 14.7737 8.96849C15.4671 8.95702 15.811 9.38682 16.0058 9.99425C16.2923 10.8882 16.6075 11.7707 16.8596 12.6704C16.9857 13.1174 17.2092 13.2549 17.6677 13.2377C18.6075 13.1976 19.5473 13.232 20.4814 13.2263C21.1003 13.2206 21.5874 13.4269 21.7879 14.0515C21.9885 14.6761 21.7077 15.1288 21.2091 15.4841C20.3037 16.1489 19.404 16.8079 18.4413 17.507ZM18.235 21.1746C18.2751 21.1516 18.3152 21.1287 18.3553 21.1115C18.0287 20.1029 17.702 19.1001 17.3754 18.0915C17.043 17.06 17.043 17.0543 17.8969 16.4297C18.4012 16.0629 18.9112 15.6962 19.4155 15.3237C19.7593 15.0715 20.0974 14.8079 20.4355 14.55C19.5072 14.4125 18.6419 14.4125 17.7708 14.4125C15.9771 14.4068 16.2408 14.5558 15.7021 12.9226C15.4213 12.0744 15.1348 11.2263 14.854 10.3782C14.4757 11.1346 14.2408 11.8796 13.9944 12.6131C13.2895 14.6704 13.7537 14.3953 11.5474 14.4182C11.1463 14.424 10.7452 14.4182 10.3383 14.4182C9.95434 14.4182 9.57039 14.4182 9.18644 14.4182C9.95434 15.1689 10.7452 15.742 11.5302 16.3208C12.5445 17.06 12.5388 17.0543 12.1606 18.2233C11.8511 19.1861 11.5474 20.1488 11.1749 21.3006C12.2867 20.4926 13.2379 19.8336 14.1548 19.1288C14.6018 18.7849 14.9686 18.7906 15.4098 19.1345C16.3496 19.8336 17.3009 20.4984 18.235 21.1746Z" fill="#356C07"/>
</svg>
