<svg width="16" height="16" viewBox="0 0 16 16" fill="none" xmlns="http://www.w3.org/2000/svg">
    <path d="M9.97796 9.55445C9.62292 9.55445 9.3351 9.83084 9.3351 10.1718V11.818C9.3351 12.159 9.62292 12.4354 9.97796 12.4354C10.333 12.4354 10.6208 12.159 10.6208 11.818V10.1718C10.6208 9.83084 10.333 9.55445 9.97796 9.55445Z" fill="#E10000"/>
    <path d="M5.90653 10.1718C5.90653 9.83084 6.19435 9.55445 6.54939 9.55445C6.90443 9.55445 7.19224 9.83084 7.19224 10.1718V11.818C7.19224 12.159 6.90443 12.4354 6.54939 12.4354C6.19435 12.4354 5.90653 12.159 5.90653 11.818V10.1718Z" fill="#E10000"/>
    <path fill-rule="evenodd" clip-rule="evenodd" d="M10.2784 1.42612C10.1009 1.13085 10.2062 0.753285 10.5137 0.582811C10.8211 0.412337 11.2143 0.513504 11.3918 0.808774L13.1061 3.66015C13.1318 3.70287 13.1516 3.74731 13.1656 3.79259H13.4065C14.7083 3.79259 15.7637 4.80604 15.7637 6.05618C15.7637 6.76335 15.426 7.39478 14.897 7.80987L14.3254 11.5836L13.9424 13.3066C13.713 14.3388 12.8355 15.1229 11.7468 15.2684C9.43584 15.5772 7.0915 15.5772 4.78055 15.2684C3.69187 15.1229 2.81433 14.3388 2.58491 13.3066L2.20198 11.5836L1.63032 7.80987C1.10136 7.39478 0.763672 6.76335 0.763672 6.05618C0.763672 4.80604 1.819 3.79259 3.12081 3.79259H3.3617C3.37578 3.74731 3.39554 3.70287 3.42123 3.66015L5.13551 0.808774C5.31303 0.513504 5.7062 0.412337 6.01367 0.582811C6.32114 0.753285 6.42649 1.13085 6.24897 1.42612L4.82622 3.79259H11.7011L10.2784 1.42612ZM3.00641 8.31715C3.04432 8.31889 3.08246 8.31977 3.12081 8.31977H13.4065C13.4449 8.31977 13.483 8.31889 13.5209 8.31715L13.0591 11.3657L12.685 13.0488C12.5685 13.5733 12.1227 13.9716 11.5696 14.0455C9.37621 14.3386 7.15113 14.3386 4.95774 14.0455C4.40466 13.9716 3.95886 13.5733 3.8423 13.0488L3.46821 11.3657L3.00641 8.31715ZM14.478 6.05618C14.478 5.48793 13.9983 5.02728 13.4065 5.02728H3.12081C2.52908 5.02728 2.04939 5.48793 2.04939 6.05618C2.04939 6.62443 2.52908 7.08508 3.12081 7.08508H13.4065C13.9983 7.08508 14.478 6.62443 14.478 6.05618Z" fill="#E10000"/>
</svg>
