<svg width="14" height="14" viewBox="0 0 14 14" fill="none" xmlns="http://www.w3.org/2000/svg">
<path d="M1.652 7.08836L1.65409 7.09828C1.95142 8.5099 2.90278 9.72184 4.24918 10.3338L7 11.5842V10.1111H8.55556C10.7033 10.1111 12.4444 8.37 12.4444 6.22222V5.44444C12.4444 3.29667 10.7033 1.55556 8.55556 1.55556H5.44444C3.29667 1.55556 1.55556 3.29667 1.55556 5.44444V6.22222C1.55556 6.51807 1.58831 6.8044 1.64978 7.07847L1.652 7.08836ZM8.55556 14L3.60549 11.75C1.80278 10.9306 0.529876 9.30818 0.131933 7.4189C0.0455696 7.03383 0 6.63335 0 6.22222V5.44444C0 2.43756 2.43756 0 5.44444 0H8.55556C11.5624 0 14 2.43756 14 5.44444V6.22222C14 9.22911 11.5624 11.6667 8.55556 11.6667V14Z" fill="#888888"/>
<rect x="2" y="5.22217" width="2" height="2" fill="#888888"/>
<rect x="6" y="5.22217" width="2" height="2" fill="#888888"/>
<rect x="10" y="5.22217" width="2" height="2" fill="#888888"/>
</svg>
