<svg width="39" height="34" viewBox="0 0 39 34" fill="none" xmlns="http://www.w3.org/2000/svg">
    <path d="M9.31579 29.5512C9.04986 29.0609 8.82549 28.7202 8.66759 28.3463C8.50139 27.9391 8.25208 27.7812 7.80332 27.7978C6.86427 27.8393 5.92521 27.8061 4.98615 27.8144C4.4626 27.8144 4.06371 27.6482 4.06371 27.0582C4.06371 26.4681 4.48753 26.2936 4.99446 26.2853C5.92521 26.277 6.86427 26.2853 7.85319 26.2853C7.75346 25.6787 7.67036 25.1551 7.57895 24.5817C5.58449 24.5817 3.60665 24.5817 1.62881 24.5817C1.37119 24.5817 1.12188 24.5817 0.864266 24.5817C0.357341 24.5734 0 24.349 0 23.8255C0 23.3019 0.34903 23.0609 0.847645 23.0609C2.39335 23.0526 3.94737 23.0609 5.49307 23.0526C6.17452 23.0526 6.85596 23.0526 7.56233 23.0526C7.65374 22.4792 7.74515 21.9557 7.84488 21.349C6.94737 21.349 6.0831 21.349 5.22715 21.349C4.67036 21.349 4.08033 21.3407 4.0554 20.5928C4.03047 19.8366 4.61219 19.8116 5.1856 19.8199C5.97507 19.8283 6.76454 19.7867 7.54571 19.8366C8.15235 19.8781 8.55956 19.7202 8.759 19.1053C8.85873 18.7978 9.06648 18.5319 9.30748 18.0914C8.71745 18.0914 8.22715 18.0997 7.73684 18.0914C7.22161 18.0831 6.8144 17.9003 6.83103 17.3019C6.83934 16.7535 7.22992 16.5873 7.71191 16.5623C7.81163 16.5623 7.91136 16.5623 8.01939 16.5623C10.7452 16.5291 10.7535 16.5374 12.831 14.9418C13.0139 14.8006 13.097 14.4266 13.097 14.1607C13.1136 10.3463 13.1053 6.54017 13.1053 2.72576C13.1053 0.822715 13.928 0.00831025 15.8476 0C22.6537 0 29.4681 0 36.2742 0C38.2022 0 39 0.806094 39 2.72576C39 9.53186 39 16.3463 39 23.1524C39 25.0554 38.1773 25.8781 36.2493 25.8781C33.5817 25.8781 30.9141 25.8864 28.2465 25.8698C27.7479 25.8698 27.5069 25.9778 27.349 26.518C25.2548 33.6814 16.795 36.2327 11.0609 31.4626C10.795 31.2465 10.3961 31.1219 10.0554 31.0886C9.37396 31.0305 8.68421 31.072 8.00277 31.072C7.44598 31.072 6.84765 31.0637 6.83103 30.3158C6.8144 29.5596 7.40443 29.5346 7.96122 29.5429C8.37673 29.5596 8.77562 29.5512 9.31579 29.5512ZM30.349 1.5374C30.349 1.91967 30.349 2.19391 30.349 2.46814C30.349 4.72853 30.3657 6.98892 30.3324 9.24931C30.3241 9.68144 30.2078 10.3296 29.9169 10.4875C29.6427 10.6454 29.0443 10.3712 28.6621 10.1468C27.9224 9.70637 27.2244 9.19114 26.5346 8.6759C26.1939 8.41828 25.9529 8.40166 25.6039 8.66759C24.831 9.24931 24.0416 9.80609 23.2271 10.313C22.9446 10.4875 22.4626 10.6371 22.2133 10.5125C21.9723 10.3878 21.7895 9.90582 21.7895 9.57341C21.7562 7.18837 21.7729 4.79501 21.7729 2.40997C21.7729 2.13573 21.7729 1.86981 21.7729 1.52909C19.7368 1.52909 17.7839 1.52909 15.831 1.52909C14.8006 1.52909 14.6343 1.69529 14.6343 2.71745C14.6343 5.89197 14.6343 9.06648 14.6343 12.241C14.6343 12.8476 14.6343 13.4543 14.6343 14.144C18.0166 13.2798 21.108 13.7285 23.8338 15.8643C26.5596 17.9917 27.7895 20.8587 27.7562 24.3241C28.0637 24.3407 28.313 24.3573 28.5623 24.3573C31.1053 24.3573 33.6399 24.3573 36.1828 24.3573C37.313 24.3573 37.4709 24.2078 37.4709 23.0942C37.4709 17.7839 37.4709 12.4737 37.4709 7.16343C37.4709 5.61773 37.4626 4.06371 37.4709 2.51801C37.4709 1.96953 37.338 1.5374 36.6898 1.5374C34.6288 1.5374 32.5429 1.5374 30.349 1.5374ZM17.6427 32.3684C22.3629 32.3767 26.1939 28.5873 26.2188 23.8837C26.2438 19.1219 22.4377 15.2742 17.6925 15.2659C12.964 15.2659 9.14127 19.0554 9.11634 23.759C9.09972 28.5208 12.8892 32.3601 17.6427 32.3684ZM23.3019 1.56233C23.3019 2.759 23.3019 3.87258 23.3019 4.98615C23.3019 6.0831 23.3019 7.18006 23.3019 8.42659C23.8753 8.0277 24.3075 7.72853 24.7396 7.42936C26.0693 6.50693 26.0609 6.50693 27.3657 7.40443C27.8144 7.71191 28.2632 8.0277 28.8199 8.40997C28.8199 7.12188 28.8199 6.00831 28.8199 4.89474C28.8199 3.78947 28.8199 2.68421 28.8199 1.55402C26.9418 1.56233 25.1717 1.56233 23.3019 1.56233Z" fill="#356C07"/>
    <path d="M3.81423 16.5708C3.91396 16.5708 4.01368 16.5708 4.12171 16.5708C4.67019 16.5708 5.19373 16.6456 5.18542 17.3437C5.17711 18.0417 4.63695 18.0999 4.09678 18.0999C3.81423 18.0999 3.53999 18.1082 3.25745 18.0916C2.76714 18.0666 2.4098 17.8672 2.41811 17.3187C2.42642 16.7702 2.80038 16.5874 3.28238 16.5708C3.4652 16.5708 3.63972 16.5708 3.81423 16.5708Z" fill="#356C07"/>
    <path d="M3.89748 29.5594C4.35454 29.6092 5.10246 29.3682 5.18556 30.2907C5.24374 30.8724 4.81991 31.0884 3.74789 31.0884C3.57338 31.0884 3.39055 31.0968 3.21604 31.0801C2.72573 31.0303 2.38501 30.7976 2.41825 30.2574C2.45149 29.7588 2.79221 29.576 3.24928 29.5594C3.4321 29.551 3.60662 29.5594 3.89748 29.5594Z" fill="#356C07"/>
    <path d="M24.6732 23.8338C24.6649 27.6898 21.4904 30.8477 17.6178 30.8228C13.7951 30.8061 10.6538 27.6399 10.6621 23.8089C10.6704 19.9529 13.8533 16.7867 17.7175 16.8117C21.5402 16.8366 24.6732 20.0028 24.6732 23.8338ZM17.6344 29.2937C20.6427 29.3103 23.1275 26.8505 23.1441 23.8505C23.1607 20.8421 20.7009 18.3574 17.7009 18.3324C14.7009 18.3158 12.2078 20.7757 12.1912 23.7757C12.1746 26.7923 14.6261 29.2854 17.6344 29.2937Z" fill="#356C07"/>
    <path d="M18.4313 23.0525C18.8967 23.0525 19.2956 23.0525 19.6945 23.0525C20.2263 23.0525 20.6003 23.2603 20.592 23.842C20.5837 24.3822 20.2263 24.5816 19.7277 24.5816C19.0712 24.5816 18.4147 24.5899 17.7499 24.5816C17.1931 24.5733 16.9105 24.2658 16.9105 23.7257C16.9022 22.7367 16.9022 21.7478 16.9105 20.7672C16.9105 20.252 17.1848 19.9279 17.6917 19.9362C18.1986 19.9445 18.4396 20.3018 18.4396 20.8088C18.4313 21.5234 18.4313 22.2464 18.4313 23.0525Z" fill="#356C07"/>
</svg>
