<svg width="36" height="36" viewBox="0 0 36 36" fill="none" xmlns="http://www.w3.org/2000/svg">
    <circle cx="18" cy="18" r="18" fill="#356C07"/>
    <path d="M13.9517 11.9915C12.793 13.1485 12.1191 14.7038 12.0673 16.3404C12.0155 17.9769 12.5897 19.5717 13.6728 20.7997C14.756 22.0276 16.2666 22.7963 17.8969 22.9492C19.4975 23.0992 21.095 22.6446 22.3759 21.6767L25.7071 25.0087L25.7071 25.0087C25.7899 25.0915 25.8883 25.1572 25.9965 25.2021C26.1048 25.2469 26.2208 25.27 26.3379 25.27C26.4551 25.27 26.5711 25.2469 26.6793 25.2021C26.7875 25.1572 26.8859 25.0915 26.9687 25.0087C27.0516 24.9258 27.1173 24.8275 27.1621 24.7192C27.2069 24.611 27.23 24.495 27.23 24.3779C27.23 24.2607 27.2069 24.1447 27.1621 24.0365C27.1173 23.9282 27.0516 23.8299 26.9687 23.747L26.9687 23.747L23.637 20.4161C24.6023 19.1351 25.0549 17.5386 24.904 15.9396C24.7503 14.3107 23.9818 12.8015 22.7548 11.7191C21.5279 10.6367 19.9347 10.0624 18.2994 10.113C16.664 10.1636 15.1094 10.8354 13.9517 11.9915ZM13.9517 11.9915L14.0224 12.0623L13.9517 11.9915ZM21.7897 13.2538C22.2273 13.6843 22.5753 14.1972 22.8136 14.7628C23.052 15.3285 23.176 15.9357 23.1785 16.5496C23.181 17.1634 23.062 17.7716 22.8282 18.3392C22.5945 18.9068 22.2507 19.4225 21.8166 19.8565C21.3826 20.2906 20.8669 20.6344 20.2993 20.8682C19.7317 21.1019 19.1235 21.221 18.5096 21.2185C17.8958 21.216 17.2885 21.092 16.7229 20.8536C16.1572 20.6152 15.6443 20.2672 15.2138 19.8297C14.3535 18.9552 13.8736 17.7762 13.8786 16.5496C13.8836 15.3229 14.3731 14.1479 15.2405 13.2805C16.1079 12.413 17.2829 11.9235 18.5096 11.9185C19.7363 11.9135 20.9153 12.3935 21.7897 13.2538Z" fill="white" stroke="white" stroke-width="0.2"/>
</svg>
