<svg width="20" height="19" viewBox="0 0 20 19" fill="none" xmlns="http://www.w3.org/2000/svg">
<path d="M5.45169 2.99153C4.29301 4.1485 3.6191 5.70376 3.56729 7.34035C3.51547 8.97695 4.08966 10.5717 5.17283 11.7997C6.256 13.0276 7.76665 13.7963 9.39691 13.9492C10.9975 14.0992 12.595 13.6446 13.8759 12.6767L17.2071 16.0087L17.2071 16.0087C17.2899 16.0915 17.3883 16.1572 17.4965 16.2021C17.6048 16.2469 17.7208 16.27 17.8379 16.27C17.9551 16.27 18.0711 16.2469 18.1793 16.2021C18.2875 16.1572 18.3859 16.0915 18.4687 16.0087C18.5516 15.9258 18.6173 15.8275 18.6621 15.7192C18.7069 15.611 18.73 15.495 18.73 15.3779C18.73 15.2607 18.7069 15.1447 18.6621 15.0365C18.6173 14.9282 18.5516 14.8299 18.4687 14.747L18.4687 14.747L15.137 11.4161C16.1023 10.1351 16.5549 8.53858 16.404 6.93955C16.2503 5.31066 15.4818 3.80151 14.2548 2.71913C13.0279 1.63674 11.4347 1.06244 9.79935 1.11304C8.164 1.16365 6.60936 1.83536 5.45169 2.99153ZM5.45169 2.99153L5.52235 3.06229L5.45169 2.99153ZM13.2897 4.25378C13.7273 4.68428 14.0753 5.19715 14.3136 5.76281C14.552 6.32848 14.676 6.93574 14.6785 7.54956C14.681 8.16339 14.562 8.77164 14.3282 9.33923C14.0945 9.90681 13.7507 10.4225 13.3166 10.8565C12.8826 11.2906 12.3669 11.6344 11.7993 11.8682C11.2317 12.1019 10.6235 12.221 10.0096 12.2185C9.3958 12.216 8.78854 12.092 8.22287 11.8536C7.65721 11.6152 7.14434 11.2672 6.71384 10.8297C5.85353 9.95522 5.3736 8.77625 5.3786 7.54956C5.38359 6.32288 5.87311 5.14786 6.74051 4.28045C7.60792 3.41304 8.78294 2.92353 10.0096 2.91854C11.2363 2.91354 12.4153 3.39347 13.2897 4.25378Z" fill="#356C07" stroke="#356C07" stroke-width="0.2"/>
</svg>
