<svg width="39" height="25" viewBox="0 0 39 25" fill="none" xmlns="http://www.w3.org/2000/svg">
    <g clip-path="url(#clip0_3441_10705)">
        <path d="M7.06894 21.0257C6.06343 21.0257 5.10058 21.0303 4.13773 21.0241C3.00577 21.0164 2.58072 20.5844 2.56853 19.4396C2.56548 19.1141 2.56853 18.787 2.56853 18.3859C1.90428 18.3859 1.31621 18.4461 0.750997 18.3597C0.472197 18.318 0.0638994 18.0434 0.0151475 17.8089C-0.0823563 17.3445 0.306135 17.1501 0.741856 17.1501C2.59595 17.147 4.45157 17.1254 6.30414 17.1763C6.55247 17.1825 6.95315 17.5296 6.99886 17.7734C7.08874 18.264 6.68045 18.3905 6.2493 18.3874C5.46622 18.3813 4.68314 18.3859 3.84827 18.3859C3.84827 18.8472 3.84827 19.2468 3.84827 19.7775C4.92538 19.7775 6.02991 19.7914 7.13445 19.7606C7.27156 19.7559 7.44372 19.5338 7.52751 19.3733C8.2725 17.9493 9.44255 17.1655 11.0194 17.1686C12.5962 17.1717 13.7632 17.957 14.5051 19.3856C14.5935 19.5554 14.8174 19.7667 14.9789 19.7683C19.065 19.7899 23.1525 19.7852 27.3543 19.7852C27.3543 18.5834 27.2797 15.5934 27.3787 15.2925C27.6971 14.464 28.4588 14.7726 28.5487 15.2617C28.6264 16.1287 28.5822 19.1187 28.5822 19.7374C28.6569 19.7498 28.7315 19.7606 28.8062 19.7729C28.9387 19.543 29.0682 19.31 29.2038 19.0817C30.6435 16.6471 34.1262 16.4635 35.6406 18.8457C36.2013 19.7282 36.7649 19.9534 37.7187 19.7143C37.7187 18.8981 37.7187 18.0418 37.7187 17.1439C37.4231 17.1161 37.1245 17.1084 36.8305 17.0591C35.8661 16.8971 35.2018 16.192 35.1881 15.2262C35.1592 13.1002 34.9718 13.185 37.0437 13.2035C37.2144 13.2051 37.385 13.1804 37.6196 13.1634C37.3393 12.3442 36.8 11.8705 36.0519 11.8566C33.5945 11.8088 31.1356 11.8381 28.6447 11.8381C28.6081 12.1236 28.6401 12.4105 28.5243 12.6126C28.3065 12.9227 27.8494 13.077 27.397 12.5771C27.3025 12.392 27.3558 12.1251 27.3558 11.8937C27.3543 8.65373 27.3543 5.41224 27.3543 2.1723C27.3543 1.89459 27.3543 1.61534 27.3543 1.29135C19.4915 1.29135 11.7049 1.29135 3.79647 1.29135C3.79647 1.549 3.79647 1.819 3.79647 2.08899C3.79647 5.38139 3.79647 8.67379 3.79494 11.9646C3.79494 12.1961 3.84674 12.463 3.75076 12.6466C3.65021 12.8425 3.40645 13.0739 3.21602 13.0816C3.02405 13.0909 2.74525 12.8857 2.6447 12.6975C2.53501 12.4923 2.5731 12.1991 2.5731 11.943C2.57005 8.54882 2.57005 5.15305 2.57158 1.75882C2.57005 0.410392 2.97073 0.00154283 4.28856 0C11.7567 0 19.2249 0 26.6931 0C28.2318 0 28.5655 0.336337 28.5807 1.89922C28.5822 2.10288 28.5807 2.30807 28.5807 2.5827C28.8351 2.60121 29.053 2.62898 29.2709 2.62898C30.5415 2.63361 31.8121 2.61355 33.0811 2.63669C34.8194 2.66755 36.25 4.20729 35.6772 5.82727C35.0845 7.50123 36.0641 8.76944 36.1982 10.2305C36.2134 10.3987 36.4968 10.6023 36.6979 10.681C38.2275 11.2704 38.9923 12.3596 38.9969 14.0367C39.003 16.0177 39.0014 17.9971 38.9969 19.9781C38.9953 20.9223 38.8933 21.018 37.9274 21.0241C37.4475 21.0272 36.9691 21.0241 36.5059 21.0241C35.7686 23.8151 34.5163 25.0293 32.4519 24.9969C30.4348 24.9661 29.1764 23.7025 28.5548 21.0581C24.0483 21.0581 19.5327 21.0581 14.9439 21.0581C14.7855 22.4266 14.3208 23.6979 13.0563 24.3566C12.3448 24.7269 11.4688 24.9722 10.6766 24.9491C8.74783 24.8935 7.48638 23.4556 7.06894 21.0257ZM28.6295 6.51537C28.6295 7.91934 28.6295 9.19217 28.6295 10.5067C30.741 10.5067 32.8054 10.5067 34.9687 10.5067C34.6595 9.23383 34.3731 8.02117 34.0577 6.81622C34.0257 6.69125 33.817 6.52925 33.6875 6.52771C32.0208 6.5092 30.3525 6.51537 28.6295 6.51537ZM13.6626 21.109C13.6824 19.6541 12.4636 18.4013 11.0194 18.3952C9.60252 18.3874 8.40048 19.5739 8.36391 21.0133C8.32582 22.4821 9.51111 23.7333 10.963 23.7596C12.4149 23.7858 13.6428 22.5808 13.6626 21.109ZM32.5159 23.7611C33.9678 23.7627 35.1805 22.5315 35.1714 21.0642C35.1622 19.6279 33.9846 18.4245 32.5616 18.3952C31.1234 18.3658 29.8833 19.5924 29.8681 21.0565C29.8528 22.5207 31.0655 23.758 32.5159 23.7611ZM34.498 5.23482C34.4157 4.43101 34.015 3.94347 33.3523 3.91416C31.7953 3.84782 30.2337 3.89256 28.6325 3.89256C28.6325 4.37083 28.6325 4.78586 28.6325 5.23482C30.5978 5.23482 32.5098 5.23482 34.498 5.23482ZM37.7385 14.498C37.2906 14.498 36.8777 14.498 36.4709 14.498C36.3186 15.6875 36.6415 15.9945 37.7385 15.7353C37.7385 15.3403 37.7385 14.9408 37.7385 14.498Z" fill="#356C07"/>
        <path d="M20.7574 18.3873C19.3375 18.3873 17.9176 18.3842 16.4977 18.3889C16.0574 18.3904 15.6385 18.3395 15.6507 17.7687C15.6613 17.2117 16.0803 17.1484 16.5175 17.1484C19.3573 17.15 22.1971 17.15 25.0384 17.1484C25.4726 17.1484 25.9023 17.1994 25.9221 17.7517C25.9449 18.3781 25.4742 18.3904 25.0171 18.3889C23.5972 18.3842 22.1773 18.3873 20.7574 18.3873Z" fill="#356C07"/>
        <path d="M5.72902 15.7522C4.53765 15.7522 3.34475 15.7475 2.15337 15.7537C1.70851 15.7568 1.29717 15.6874 1.31088 15.1242C1.32459 14.5688 1.74355 14.5117 2.18232 14.5133C4.59097 14.5164 7.00114 14.5179 9.40979 14.5117C9.85313 14.5102 10.2843 14.5843 10.2965 15.115C10.3102 15.709 9.84856 15.7583 9.38085 15.7553C8.16357 15.746 6.9463 15.7522 5.72902 15.7522Z" fill="#356C07"/>
        <path d="M10.9916 19.7961C11.6635 19.7837 12.2683 20.3793 12.279 21.0628C12.2896 21.7416 11.7 22.3541 11.0266 22.3649C10.3578 22.3757 9.753 21.7802 9.74233 21.0982C9.73167 20.4178 10.3167 19.8084 10.9916 19.7961Z" fill="#356C07"/>
        <path d="M33.7897 21.0812C33.7897 21.7585 33.1879 22.3648 32.5191 22.3648C31.8503 22.3648 31.25 21.7569 31.25 21.0796C31.25 20.3992 31.8503 19.7944 32.5206 19.7944C33.1925 19.7944 33.7897 20.4008 33.7897 21.0812Z" fill="#356C07"/>
    </g>
    <defs>
        <clipPath id="clip0_3441_10705">
            <rect width="39" height="25" fill="white"/>
        </clipPath>
    </defs>
</svg>
