<svg width="13" height="14" viewBox="0 0 13 14" fill="none" xmlns="http://www.w3.org/2000/svg">
<path fill-rule="evenodd" clip-rule="evenodd" d="M2.41825 8.87675C2.92616 8.36884 3.61504 8.0835 4.33333 8.0835H8.66667C9.38496 8.0835 10.0738 8.36884 10.5817 8.87675C11.0897 9.38466 11.375 10.0735 11.375 10.7918V11.8752C11.375 12.1743 11.1325 12.4168 10.8333 12.4168C10.5342 12.4168 10.2917 12.1743 10.2917 11.8752V10.7918C10.2917 10.3609 10.1205 9.94753 9.81571 9.64278C9.51097 9.33803 9.09764 9.16683 8.66667 9.16683H4.33333C3.90236 9.16683 3.48903 9.33803 3.18428 9.64278C2.87954 9.94753 2.70833 10.3609 2.70833 10.7918V11.8752C2.70833 12.1743 2.46582 12.4168 2.16667 12.4168C1.86751 12.4168 1.625 12.1743 1.625 11.8752V10.7918C1.625 10.0735 1.91034 9.38466 2.41825 8.87675Z" fill="#A1A1A1"/>
<path fill-rule="evenodd" clip-rule="evenodd" d="M1.625 11.8102C1.625 11.4512 1.91601 11.1602 2.275 11.1602H10.725C11.084 11.1602 11.375 11.4512 11.375 11.8102C11.375 12.1691 11.084 12.4602 10.725 12.4602H2.275C1.91601 12.4602 1.625 12.1691 1.625 11.8102Z" fill="#A1A1A1"/>
<path fill-rule="evenodd" clip-rule="evenodd" d="M6.50008 2.66683C5.60262 2.66683 4.87508 3.39437 4.87508 4.29183C4.87508 5.18929 5.60262 5.91683 6.50008 5.91683C7.39754 5.91683 8.12508 5.18929 8.12508 4.29183C8.12508 3.39437 7.39754 2.66683 6.50008 2.66683ZM3.79175 4.29183C3.79175 2.79606 5.00431 1.5835 6.50008 1.5835C7.99585 1.5835 9.20841 2.79606 9.20841 4.29183C9.20841 5.7876 7.99585 7.00016 6.50008 7.00016C5.00431 7.00016 3.79175 5.7876 3.79175 4.29183Z" fill="#A1A1A1"/>
</svg>
