<svg width="15" height="15" viewBox="0 0 15 15" fill="none" xmlns="http://www.w3.org/2000/svg">
<path d="M9.1 9.05445C8.76863 9.05445 8.5 9.33084 8.5 9.67179V11.318C8.5 11.659 8.76863 11.9354 9.1 11.9354C9.43137 11.9354 9.7 11.659 9.7 11.318V9.67179C9.7 9.33084 9.43137 9.05445 9.1 9.05445Z" fill="white"/>
<path d="M5.3 9.67179C5.3 9.33084 5.56863 9.05445 5.9 9.05445C6.23137 9.05445 6.5 9.33084 6.5 9.67179V11.318C6.5 11.659 6.23137 11.9354 5.9 11.9354C5.56863 11.9354 5.3 11.659 5.3 11.318V9.67179Z" fill="white"/>
<path fill-rule="evenodd" clip-rule="evenodd" d="M9.38039 0.926116C9.2147 0.630846 9.31303 0.253285 9.6 0.0828112C9.88698 -0.087663 10.2539 0.013504 10.4196 0.308774L12.0196 3.16015C12.0436 3.20287 12.062 3.24731 12.0752 3.29259H12.3C13.515 3.29259 14.5 4.30604 14.5 5.55618C14.5 6.26335 14.1848 6.89478 13.6911 7.30987L13.1576 11.0836L12.8002 12.8066C12.586 13.8388 11.767 14.6229 10.7509 14.7684C8.59403 15.0772 6.40597 15.0772 4.24909 14.7684C3.23299 14.6229 2.41395 13.8388 2.19982 12.8066L1.84243 11.0836L1.30888 7.30987C0.815173 6.89478 0.5 6.26335 0.5 5.55618C0.5 4.30604 1.48497 3.29259 2.7 3.29259H2.92482C2.93797 3.24731 2.95641 3.20287 2.98038 3.16015L4.58038 0.308774C4.74607 0.013504 5.11302 -0.087663 5.4 0.0828112C5.68697 0.253285 5.7853 0.630846 5.61961 0.926116L4.29171 3.29259H10.7083L9.38039 0.926116ZM2.59323 7.81715C2.6286 7.81889 2.6642 7.81977 2.7 7.81977H12.3C12.3358 7.81977 12.3714 7.81889 12.4068 7.81715L11.9758 10.8657L11.6266 12.5488C11.5178 13.0733 11.1017 13.4716 10.5855 13.5455C8.53837 13.8386 6.46163 13.8386 4.41446 13.5455C3.89826 13.4716 3.48217 13.0733 3.37339 12.5488L3.02424 10.8657L2.59323 7.81715ZM13.3 5.55618C13.3 4.98793 12.8523 4.52728 12.3 4.52728H2.7C2.14771 4.52728 1.7 4.98793 1.7 5.55618C1.7 6.12443 2.14771 6.58508 2.7 6.58508H12.3C12.8523 6.58508 13.3 6.12443 13.3 5.55618Z" fill="white"/>
</svg>
